<svg enable-background="new 0 0 256 256" height="512" viewBox="0 0 256 256" width="512" xmlns="http://www.w3.org/2000/svg"><path d="m202.199 241.452h-172.687c-3.327 0-6.024 2.697-6.024 6.024s2.697 6.024 6.024 6.024h172.688c3.327 0 6.024-2.697 6.024-6.024-.001-3.327-2.698-6.024-6.025-6.024z" fill="#a0d85d"/><path d="m140.122 35.946-19.928-17.627c-2.477-2.191-6.2-2.191-8.677 0l-96.337 85.216c-2.708 2.396-2.962 6.534-.566 9.242 2.396 2.71 6.535 2.962 9.243.566l91.998-81.379 24.266 21.465v-17.483z" fill="#fc3850"/><path d="m191.575 125.318c-2.347 0-4.693-.646-6.741-1.94l-14.495-9.16c-18.921-11.956-30.217-32.456-30.217-54.839v-5.949l-24.266-21.465-82.034 72.565v136.922h164.068v-117.826c-1.945 1.123-4.128 1.692-6.315 1.692z" fill="#edf4fc"/><path d="m132.589 147.076h48.192v94.376h-48.192z" fill="#1387ce"/><path d="m48.215 190.906h28.188v31.345h-28.188z" fill="#45bdf0"/><path d="m88.375 190.906h28.188v31.345h-28.188z" fill="#45bdf0"/><path d="m48.215 147.076h28.188v31.345h-28.188z" fill="#45bdf0"/><path d="m88.375 147.076h28.188v31.345h-28.188z" fill="#45bdf0"/><g fill="#1387ce"><path d="m48.215 147.076h28.188v12.048h-28.188z"/><path d="m88.375 147.076h28.188v12.048h-28.188z"/><path d="m48.215 190.906h28.188v12.048h-28.188z"/><path d="m88.375 190.906h28.188v12.048h-28.188z"/></g><path d="m132.589 147.076h48.192v12.048h-48.192z" fill="#45bdf0"/><path d="m191.575 125.318c-2.347 0-4.693-.646-6.741-1.94l-14.495-9.16c-18.921-11.956-30.217-32.456-30.217-54.839v-29.118c0-2.905 2.336-5.27 5.241-5.307 16.422-.206 31.76-7.67 42.081-20.477 1.007-1.25 2.527-1.977 4.132-1.977s3.125.727 4.132 1.977c10.321 12.807 25.659 20.271 42.081 20.477 2.905.036 5.241 2.402 5.241 5.307v29.118c0 22.383-11.296 42.883-30.217 54.839l-14.495 9.16c-2.049 1.294-4.396 1.94-6.743 1.94z" fill="#f9d87a"/><path d="m150.736 35.294v24.085c0 18.72 9.448 35.866 25.273 45.866l14.495 9.16c.651.411 1.493.411 2.142 0l14.495-9.16c15.825-9.999 25.273-27.146 25.273-45.866v-24.085c-15.534-1.432-29.96-8.325-40.839-19.495-10.879 11.17-25.305 18.063-40.839 19.495z" fill="#facb35"/><path d="m189.402 80.63c-1.341 0-2.681-.511-3.704-1.534l-9.601-9.601c-2.045-2.045-2.045-5.361 0-7.406 2.046-2.045 5.361-2.045 7.407 0l5.897 5.897 14.35-14.35c2.046-2.045 5.361-2.045 7.407 0 2.045 2.045 2.045 5.361 0 7.406l-18.053 18.053c-1.022 1.024-2.362 1.535-3.703 1.535z" fill="#edf4fc"/><path d="m202.199 256h-172.687c-4.7 0-8.524-3.824-8.524-8.524s3.824-8.524 8.524-8.524h172.688c4.7 0 8.524 3.824 8.524 8.524s-3.825 8.524-8.525 8.524zm-172.687-12.048c-1.943 0-3.524 1.581-3.524 3.524s1.581 3.524 3.524 3.524h172.688c1.943 0 3.524-1.581 3.524-3.524s-1.581-3.524-3.524-3.524z"/><path d="m191.575 127.818c-2.874 0-5.667-.805-8.076-2.327l-14.496-9.16c-19.649-12.416-31.381-33.706-31.381-56.952v-29.118c0-4.251 3.458-7.753 7.709-7.807 15.675-.196 30.313-7.321 40.165-19.546 1.49-1.848 3.706-2.908 6.079-2.908s4.589 1.06 6.079 2.908c9.852 12.226 24.49 19.35 40.165 19.546 4.251.053 7.709 3.555 7.709 7.807v29.119c0 23.245-11.731 44.536-31.382 56.952l-14.494 9.16c-2.41 1.521-5.203 2.326-8.077 2.326zm0-122.818c-.854 0-1.65.381-2.187 1.046-10.789 13.389-26.825 21.192-43.995 21.408-1.528.019-2.771 1.278-2.771 2.807v29.119c0 21.521 10.86 41.231 29.052 52.725l14.496 9.16c3.217 2.033 7.593 2.033 10.812 0l14.494-9.16c18.192-11.495 29.053-31.205 29.053-52.725v-29.119c0-1.529-1.243-2.788-2.771-2.807-17.17-.216-33.206-8.019-43.995-21.408-.537-.665-1.334-1.046-2.188-1.046z"/><path d="m19.531 117.487c-.188 0-.376-.006-.565-.018-2.413-.147-4.624-1.226-6.225-3.037-3.305-3.736-2.953-9.465.783-12.771l96.337-85.216c3.417-3.023 8.572-3.023 11.989 0l19.927 17.627c.536.475.844 1.156.844 1.873v17.485c0 .983-.576 1.875-1.473 2.279-.896.405-1.946.245-2.684-.407l-22.609-20-90.342 79.913c-1.667 1.476-3.774 2.272-5.982 2.272zm96.324-98.311c-.958 0-1.917.338-2.682 1.015l-96.337 85.216c-1.672 1.479-1.828 4.042-.35 5.713.716.81 1.705 1.292 2.784 1.358 1.07.063 2.12-.292 2.93-1.008l91.998-81.378c.945-.837 2.367-.837 3.312 0l20.109 17.789v-10.809l-19.083-16.881c-.763-.676-1.722-1.015-2.681-1.015z"/><path d="m197.89 243.952h-164.069c-1.381 0-2.5-1.119-2.5-2.5v-136.922c0-.716.308-1.398.844-1.873l82.034-72.565c.945-.837 2.367-.837 3.312 0l24.266 21.465c.536.475.844 1.156.844 1.873v5.949c0 21.52 10.861 41.23 29.054 52.726l14.495 9.159c3.091 1.954 7.265 2.049 10.47.197.773-.446 1.727-.446 2.5 0s1.25 1.272 1.25 2.165v117.826c0 1.381-1.119 2.5-2.5 2.5zm-161.569-5h159.069v-111.623c-4.004 1.042-8.399.369-11.891-1.838l-14.495-9.159c-19.651-12.417-31.383-33.708-31.383-56.953v-4.822l-21.766-19.254-79.534 70.354z"/><path d="m191.576 117.211c-.837 0-1.675-.231-2.406-.692l-14.497-9.161c-16.554-10.46-26.437-28.396-26.437-47.979v-24.085c0-1.292.984-2.371 2.271-2.489 14.888-1.373 28.837-8.031 39.277-18.75.941-.966 2.641-.966 3.582 0 10.44 10.718 24.39 17.377 39.277 18.75 1.286.118 2.271 1.197 2.271 2.489v24.085c0 19.583-9.883 37.519-26.437 47.979l-14.495 9.16c-.73.462-1.568.693-2.406.693zm.264-4.919h.01zm-38.604-74.757v21.844c0 17.858 9.013 34.214 24.107 43.752l14.231 8.993 14.23-8.993c15.096-9.539 24.108-25.895 24.108-43.752v-21.844c-14.384-1.817-27.839-8.213-38.339-18.22-10.498 10.007-23.953 16.403-38.337 18.22z"/><path d="m189.402 83.13c-2.066 0-4.009-.804-5.471-2.265l-9.602-9.602c-3.017-3.017-3.017-7.925 0-10.942 3.016-3.016 7.925-3.016 10.942 0l4.13 4.13 12.582-12.582c3.018-3.017 7.925-3.016 10.942 0 3.017 3.017 3.017 7.925 0 10.942l-18.054 18.054c-1.459 1.46-3.402 2.265-5.469 2.265zm-9.6-20.073c-.701 0-1.403.267-1.937.8-1.066 1.067-1.066 2.804 0 3.871l9.601 9.601c1.035 1.032 2.839 1.033 3.872 0l18.054-18.054c.517-.517.802-1.204.802-1.936s-.285-1.418-.802-1.936c-1.069-1.067-2.805-1.066-3.872 0l-14.35 14.35c-.938.938-2.598.938-3.535 0l-5.897-5.897c-.535-.533-1.235-.799-1.936-.799z"/><path d="m180.781 243.952h-48.192c-1.381 0-2.5-1.119-2.5-2.5v-94.375c0-1.381 1.119-2.5 2.5-2.5h48.192c1.381 0 2.5 1.119 2.5 2.5v94.375c0 1.381-1.119 2.5-2.5 2.5zm-45.692-5h43.192v-89.375h-43.192z"/><path d="m76.403 224.75h-28.188c-1.381 0-2.5-1.119-2.5-2.5v-31.345c0-1.381 1.119-2.5 2.5-2.5h28.188c1.381 0 2.5 1.119 2.5 2.5v31.345c0 1.381-1.119 2.5-2.5 2.5zm-25.688-5h23.188v-26.345h-23.188z"/><path d="m116.562 224.75h-28.187c-1.381 0-2.5-1.119-2.5-2.5v-31.345c0-1.381 1.119-2.5 2.5-2.5h28.188c1.381 0 2.5 1.119 2.5 2.5v31.345c-.001 1.381-1.12 2.5-2.501 2.5zm-25.687-5h23.188v-26.345h-23.188z"/><path d="m76.403 180.921h-28.188c-1.381 0-2.5-1.119-2.5-2.5v-31.345c0-1.381 1.119-2.5 2.5-2.5h28.188c1.381 0 2.5 1.119 2.5 2.5v31.345c0 1.381-1.119 2.5-2.5 2.5zm-25.688-5h23.188v-26.345h-23.188z"/><path d="m116.562 180.921h-28.187c-1.381 0-2.5-1.119-2.5-2.5v-31.345c0-1.381 1.119-2.5 2.5-2.5h28.188c1.381 0 2.5 1.119 2.5 2.5v31.345c-.001 1.381-1.12 2.5-2.501 2.5zm-25.687-5h23.188v-26.345h-23.188z"/><path d="m76.403 161.624h-28.188c-1.381 0-2.5-1.119-2.5-2.5v-12.048c0-1.381 1.119-2.5 2.5-2.5h28.188c1.381 0 2.5 1.119 2.5 2.5v12.048c0 1.381-1.119 2.5-2.5 2.5zm-25.688-5h23.188v-7.048h-23.188z"/><path d="m116.562 161.624h-28.187c-1.381 0-2.5-1.119-2.5-2.5v-12.048c0-1.381 1.119-2.5 2.5-2.5h28.188c1.381 0 2.5 1.119 2.5 2.5v12.048c-.001 1.381-1.12 2.5-2.501 2.5zm-25.687-5h23.188v-7.048h-23.188z"/><path d="m76.403 205.454h-28.188c-1.381 0-2.5-1.119-2.5-2.5v-12.048c0-1.381 1.119-2.5 2.5-2.5h28.188c1.381 0 2.5 1.119 2.5 2.5v12.048c0 1.38-1.119 2.5-2.5 2.5zm-25.688-5h23.188v-7.048h-23.188z"/><path d="m116.562 205.454h-28.187c-1.381 0-2.5-1.119-2.5-2.5v-12.048c0-1.381 1.119-2.5 2.5-2.5h28.188c1.381 0 2.5 1.119 2.5 2.5v12.048c-.001 1.38-1.12 2.5-2.501 2.5zm-25.687-5h23.188v-7.048h-23.188z"/><path d="m180.78 161.624h-48.191c-1.381 0-2.5-1.119-2.5-2.5v-12.048c0-1.381 1.119-2.5 2.5-2.5h48.191c1.381 0 2.5 1.119 2.5 2.5v12.048c0 1.381-1.119 2.5-2.5 2.5zm-45.691-5h43.191v-7.048h-43.191z"/></svg>